<?xml version="1.0" encoding="iso-8859-1"?>
<!-- Uploaded to: SVG Repo, www.svgrepo.com, Generator: SVG Repo Mixer Tools -->
<svg fill="#000000" height="800px" width="800px" version="1.1" id="Layer_1" xmlns="http://www.w3.org/2000/svg" xmlns:xlink="http://www.w3.org/1999/xlink" 
	 viewBox="0 0 512 512" xml:space="preserve">
<g>
	<g>
		<path d="M256,302.522c-88.555,0-160.6,72.045-160.6,160.6c0,11.569,9.379,20.948,20.948,20.948h118.704v6.983
			c0,11.569,9.379,20.948,20.948,20.948c11.569,0,20.948-9.379,20.948-20.948v-6.983h118.704c11.569,0,20.948-9.379,20.948-20.948
			C416.6,374.567,344.555,302.522,256,302.522z M235.052,442.174h-95.906c8.706-48.694,47.212-87.19,95.906-95.896V442.174z
			 M276.948,442.174v-95.896c48.694,8.706,87.199,47.202,95.906,95.896H276.948z"/>
	</g>
</g>
<g>
	<g>
		<path d="M363.515,2.412c-7.667-4.035-17.028-2.934-23.552,2.771l-39.935,34.942l-28.125-32.81C267.925,2.672,262.114,0,256,0
			c-6.114,0-11.925,2.672-15.905,7.315l-28.125,32.81L172.037,5.182c-6.523-5.706-15.885-6.807-23.552-2.771
			c-7.667,4.037-12.059,12.377-11.046,20.984L151.403,142.1c1.126,9.565,8.587,16.972,17.888,18.275
			c-0.605,4.166-0.923,8.382-0.923,12.619c0,48.321,39.311,87.632,87.632,87.632c48.321,0,87.632-39.311,87.632-87.632
			c0-4.237-0.317-8.453-0.923-12.619c9.299-1.303,16.762-8.71,17.888-18.275l13.965-118.704
			C375.574,14.789,371.182,6.448,363.515,2.412z M256,218.73c-25.22,0-45.736-20.516-45.736-45.736
			c0-4.213,0.594-8.382,1.718-12.394l43.778-0.001c0.081,0.001,0.161,0.001,0.242,0.001h44.016
			c1.126,4.012,1.718,8.181,1.718,12.394C301.736,198.214,281.218,218.73,256,218.73z M321.163,118.704h-7.829
			c-0.068,0.001-0.137-0.003-0.204,0l-57.128-0.001c-0.081,0-0.161,0-0.242,0.001h-56.816c-0.168-0.006-0.335,0.001-0.503,0h-7.603
			l-5.431-46.154l14.901,13.041c4.211,3.683,9.725,5.516,15.295,5.129c5.578-0.401,10.764-3.015,14.404-7.262l25.991-30.323
			l25.991,30.323c3.641,4.247,8.826,6.861,14.404,7.262c5.587,0.395,11.086-1.447,15.295-5.129l14.904-13.041L321.163,118.704z"/>
	</g>
</g>
</svg>